<svg id="Calque_1" data-name="Calque 1" xmlns="http://www.w3.org/2000/svg" viewBox="0 0 1920 589"><path d="M283.28,508.51a80.12,80.12,0,0,1-21.07-3.08q-43.15-13.35-43.16-136.68,0-27.22,1.54-51.9V307.6q0-11.3-9.25-21.58a23,23,0,0,1-3.59-4.62Q196.44,266,184.62,251.08q-14.91-18.5-31.85-41.62-4.12-6.17-8.74-11.82L132.21,181.2q-12.33-17-12.33-35.46,0-13.87,8.73-27.74A80.83,80.83,0,0,1,151,94.62a49.77,49.77,0,0,1,29-9.51q13.88,0,25.69,10.79,15.92,22.09,21.58,32.37,9.25,20,19,32.38,42.64,71.41,46.25,76.3t6.68,10Q392.72,88.71,416.36,88.71a17.49,17.49,0,0,1,11.57,4.62q5.38,4.64,5.39,13.36,0,7.71-14.9,29.8-63.72,95.58-81.7,139.77Q327,300.41,327,371.32q0,20,2.05,66.28a242.62,242.62,0,0,1-1.54,28.78Q321.81,508.52,283.28,508.51Z"/><path d="M605.46,503.89q-30.33,0-66.29-17.47Q511.42,471,492.41,443.26,439,368.76,439,224.36a511.63,511.63,0,0,1,2.57-54l7.71-41.62q6.17-24.67,16.18-35.2T491.38,82a257.63,257.63,0,0,1,39.06,3.08q20,3.09,40.07,25.18a91.32,91.32,0,0,1,11.82,18.5q10.27,21.57,10.28,71.42-.52,30.82-1.54,60.63-1,26.73-1,84.27,0,73,20,99.17,7.71,11.84,19.53,11.82,7.18,0,16.44-6.16,26.21-22.6,36.48-63.21,7.19-30.83,25.18-181.38,9.25-67.83,9.25-74,2.56-43.68,19-43.68Q757,90.26,757,112.34A111.69,111.69,0,0,1,754.47,135q-3.6,14.4-11.82,97.63Q732.36,340,718.5,395.47,706.17,441.2,681,469,650.17,503.9,605.46,503.89Z"/><path d="M815.1,502.86q-10.79,0-16.44-10.79-3.09-6.17-6.17-38A104.11,104.11,0,0,0,791,440.69q-2.58-25.69-2.57-56,0-47.26,6.17-125.89,4.62-89.91,12.33-130a111.65,111.65,0,0,1,10.28-27.24q11.3-21.06,26.72-21.06,33.39,0,67.82,120.75,21.06,70.9,39,100.2,3.6,6.68,5.14,6.68,3.6,0,18-61.15,16.44-73,35.45-113,21.06-46.75,51.39-48.82,36.46,2.58,36.48,66.8,3.08,64.74,3.08,87.87l-.51,59.6.51,37q1.54,35,1.54,72.45,0,37-4.11,52.92-6.68,21.58-22.09,31.35a46.45,46.45,0,0,1-26.21,8.22c-2.05,0-6.6-.34-13.62-1s-15.15-5.65-24.4-14.9q-18-20-18-120.24,0-30.82.52-36a.91.91,0,0,0-1-1q-.52,0-5.65,11.3-16.46,36.5-19.53,41.62-15.42,29.81-38,29.81-23.13-2.06-39.06-23.64-14.39-18.5-31.34-57.55-14.91-34.93-27.23-52.93a946.86,946.86,0,0,0-5.66,105.85q0,61.15,4.12,105.86-.53,8.22-6.68,11.81A16.28,16.28,0,0,1,815.1,502.86Z"/><path d="M1182,502.86q-10.8,0-16.45-10.79-3.08-6.17-6.16-38a103.86,103.86,0,0,0-1.55-13.36q-2.57-25.69-2.56-56,0-47.26,6.16-125.89,4.63-89.91,12.33-130A112.06,112.06,0,0,1,1184,101.55q11.29-21.06,26.72-21.06,33.39,0,67.83,120.75,21.06,70.9,39.05,100.2c2.39,4.45,4.11,6.68,5.14,6.68q3.59,0,18-61.15,16.44-73,35.46-113,21.06-46.75,51.38-48.82,36.48,2.58,36.48,66.8,3.09,64.74,3.09,87.87l-.52,59.6.52,37q1.53,35,1.54,72.45,0,37-4.11,52.92-6.69,21.58-22.1,31.35a46.42,46.42,0,0,1-26.2,8.22q-3.09,0-13.62-1t-24.41-14.9q-18-20-18-120.24,0-30.82.51-36a.9.9,0,0,0-1-1q-.51,0-5.65,11.3-16.44,36.5-19.52,41.62-15.42,29.81-38,29.81-23.11-2.06-39-23.64-14.38-18.5-31.34-57.55-14.91-34.93-27.24-52.93a949.32,949.32,0,0,0-5.65,105.85q0,61.15,4.11,105.86-.51,8.22-6.68,11.81A16.22,16.22,0,0,1,1182,502.86Z"/><path d="M1650.08,508.51a80.12,80.12,0,0,1-21.07-3.08q-43.15-13.35-43.16-136.68,0-27.22,1.54-51.9V307.6q0-11.3-9.25-21.58a23,23,0,0,1-3.59-4.62q-11.31-15.42-23.13-30.32-14.91-18.5-31.86-41.62-4.11-6.17-8.73-11.82L1499,181.2q-12.33-17-12.33-35.46,0-13.87,8.73-27.74a80.7,80.7,0,0,1,22.36-23.38,49.77,49.77,0,0,1,29-9.51q13.88,0,25.69,10.79,15.91,22.09,21.58,32.37,9.26,20,19,32.38,42.64,71.41,46.25,76.3t6.68,10q93.51-158.26,117.15-158.26a17.51,17.51,0,0,1,11.57,4.62q5.38,4.64,5.39,13.36,0,7.71-14.9,29.8-63.72,95.58-81.7,139.77-9.76,24.15-9.76,95.06,0,20,2,66.28a242.62,242.62,0,0,1-1.54,28.78Q1688.62,508.52,1650.08,508.51Z"/></svg>